<mxfile host="app.diagrams.net" modified="2021-12-15T08:45:01.204Z" agent="5.0 (Windows)" etag="qLQDk7GtOrqD5P04yCh7" version="15.9.6" type="github">
  <diagram id="8FCFIQcj8RkqdztyOqTP" name="Page-1">
    <mxGraphModel dx="782" dy="474" grid="1" gridSize="10" guides="1" tooltips="1" connect="1" arrows="1" fold="1" page="1" pageScale="1" pageWidth="827" pageHeight="1169" math="0" shadow="0">
      <root>
        <mxCell id="0" />
        <mxCell id="1" parent="0" />
        <mxCell id="XqvU0QAgjmQXc5kRaS3K-1" value="" style="rounded=1;whiteSpace=wrap;html=1;" vertex="1" parent="1">
          <mxGeometry x="280" y="150" width="120" height="60" as="geometry" />
        </mxCell>
        <mxCell id="XqvU0QAgjmQXc5kRaS3K-2" value="" style="rounded=0;whiteSpace=wrap;html=1;" vertex="1" parent="1">
          <mxGeometry x="540" y="120" width="120" height="60" as="geometry" />
        </mxCell>
      </root>
    </mxGraphModel>
  </diagram>
</mxfile>
